<svg xmlns="http://www.w3.org/2000/svg" xmlns:xlink="http://www.w3.org/1999/xlink" width="200" zoomAndPan="magnify" viewBox="0 0 150 149.999998" height="200" preserveAspectRatio="xMidYMid meet" version="1.2"><g id="65fd64fac7"><path style=" stroke:none;fill-rule:nonzero;fill:#005a48;fill-opacity:1;" d="M 56.785156 30.933594 C 54.4375 30.933594 51.828125 32.457031 49.851562 36.410156 L 48.085938 39.941406 C 48.730469 39.886719 49.375 39.859375 50.019531 39.859375 C 54.691406 39.859375 59.355469 41.25 63.46875 44.003906 L 63.46875 35.96875 C 61.523438 32.359375 59.035156 30.933594 56.785156 30.933594 Z M 92.855469 30.933594 C 90.605469 30.933594 88.117188 32.359375 86.171875 35.96875 L 86.171875 44.003906 C 90.855469 40.878906 96.257812 39.523438 101.558594 39.949219 L 99.789062 36.410156 C 97.8125 32.457031 95.203125 30.933594 92.855469 30.933594 Z M 50.019531 44.398438 C 45.082031 44.398438 40.148438 46.390625 36.085938 50.359375 L 26.394531 67.324219 C 30.152344 65.574219 34.335938 64.59375 38.746094 64.59375 C 49.105469 64.59375 58.234375 69.988281 63.46875 78.109375 L 63.46875 49.890625 C 59.503906 46.230469 54.761719 44.398438 50.019531 44.398438 M 99.914062 44.40625 C 95.074219 44.328125 90.21875 46.152344 86.171875 49.890625 L 86.171875 78.109375 C 91.40625 69.988281 100.535156 64.59375 110.894531 64.59375 C 115.304688 64.59375 119.488281 65.574219 123.246094 67.324219 L 113.554688 50.359375 C 109.574219 46.472656 104.753906 44.484375 99.914062 44.40625 Z M 74.820312 47.84375 C 73.496094 47.84375 71.738281 48.5625 68.136719 50.339844 L 68.136719 84.828125 C 70.015625 83.449219 72.328125 82.632812 74.820312 82.632812 C 77.3125 82.632812 79.625 83.449219 81.503906 84.828125 L 81.503906 50.339844 C 77.902344 48.5625 76.144531 47.84375 74.820312 47.84375 M 38.746094 69.261719 C 25.066406 69.261719 14.023438 80.304688 14.023438 93.984375 C 14.023438 107.664062 25.066406 118.707031 38.746094 118.707031 C 52.429688 118.707031 63.46875 107.664062 63.46875 93.984375 C 63.46875 80.304688 52.429688 69.261719 38.746094 69.261719 Z M 110.894531 69.261719 C 97.210938 69.261719 86.171875 80.304688 86.171875 93.984375 C 86.171875 107.664062 97.210938 118.707031 110.894531 118.707031 C 124.574219 118.707031 135.617188 107.664062 135.617188 93.984375 C 135.617188 80.304688 124.574219 69.261719 110.894531 69.261719 Z M 38.339844 74.191406 C 38.660156 74.183594 38.976562 74.1875 39.292969 74.199219 C 41.199219 74.257812 43.101562 74.578125 44.9375 75.1875 C 54.488281 78.128906 60.429688 88.582031 58.0625 98.292969 C 56.078125 108.078125 46.277344 115.015625 36.390625 113.632812 C 26.34375 112.628906 18.402344 103.371094 18.976562 93.285156 C 19.019531 90.324219 19.789062 87.492188 21.101562 84.953125 C 21.332031 85.613281 21.660156 86.222656 22.082031 86.78125 C 22.503906 87.339844 23 87.824219 23.570312 88.226562 C 24.140625 88.632812 24.757812 88.941406 25.425781 89.152344 C 26.089844 89.367188 26.773438 89.472656 27.472656 89.476562 C 27.917969 89.476562 28.359375 89.429688 28.792969 89.34375 C 29.230469 89.257812 29.652344 89.128906 30.0625 88.960938 C 30.472656 88.789062 30.863281 88.582031 31.230469 88.335938 C 31.601562 88.089844 31.941406 87.808594 32.257812 87.496094 C 32.570312 87.179688 32.851562 86.839844 33.097656 86.46875 C 33.34375 86.101562 33.554688 85.710938 33.722656 85.300781 C 33.894531 84.890625 34.019531 84.46875 34.109375 84.03125 C 34.195312 83.59375 34.238281 83.15625 34.238281 82.710938 C 34.238281 82.011719 34.128906 81.328125 33.917969 80.660156 C 33.703125 79.996094 33.394531 79.375 32.992188 78.804688 C 32.585938 78.234375 32.101562 77.738281 31.542969 77.316406 C 30.984375 76.894531 30.375 76.570312 29.714844 76.335938 C 32.0625 75.121094 34.667969 74.367188 37.390625 74.226562 C 37.707031 74.207031 38.023438 74.195312 38.339844 74.191406 Z M 110.488281 74.191406 C 110.804688 74.183594 111.121094 74.1875 111.441406 74.199219 C 113.34375 74.257812 115.25 74.578125 117.085938 75.1875 C 126.636719 78.128906 132.574219 88.582031 130.210938 98.292969 C 128.226562 108.078125 118.425781 115.015625 108.535156 113.632812 C 98.488281 112.632812 90.546875 103.371094 91.121094 93.285156 C 91.167969 90.324219 91.933594 87.492188 93.25 84.953125 C 93.480469 85.613281 93.808594 86.222656 94.230469 86.78125 C 94.648438 87.339844 95.144531 87.824219 95.714844 88.226562 C 96.285156 88.632812 96.90625 88.941406 97.570312 89.152344 C 98.238281 89.367188 98.921875 89.472656 99.621094 89.476562 C 100.066406 89.476562 100.503906 89.429688 100.941406 89.34375 C 101.375 89.257812 101.796875 89.128906 102.207031 88.960938 C 102.621094 88.789062 103.007812 88.582031 103.378906 88.335938 C 103.746094 88.089844 104.089844 87.808594 104.402344 87.492188 C 104.71875 87.179688 104.996094 86.839844 105.246094 86.46875 C 105.492188 86.101562 105.699219 85.710938 105.871094 85.300781 C 106.039062 84.890625 106.167969 84.464844 106.253906 84.03125 C 106.339844 83.59375 106.382812 83.15625 106.382812 82.710938 C 106.382812 82.011719 106.277344 81.328125 106.0625 80.660156 C 105.851562 79.996094 105.542969 79.375 105.136719 78.804688 C 104.730469 78.234375 104.25 77.738281 103.691406 77.316406 C 103.132812 76.894531 102.523438 76.570312 101.863281 76.335938 C 104.210938 75.121094 106.8125 74.367188 109.535156 74.226562 C 109.851562 74.207031 110.167969 74.195312 110.488281 74.191406 Z M 74.820312 87.300781 C 71.101562 87.300781 68.136719 90.265625 68.136719 93.984375 C 68.136719 97.703125 71.101562 100.667969 74.820312 100.667969 C 78.539062 100.667969 81.503906 97.703125 81.503906 93.984375 C 81.503906 90.265625 78.539062 87.300781 74.820312 87.300781 Z M 74.820312 87.300781 "/></g></svg>