<svg xmlns="http://www.w3.org/2000/svg" xmlns:xlink="http://www.w3.org/1999/xlink" width="100" zoomAndPan="magnify" viewBox="0 0 75 74.999997" height="100" preserveAspectRatio="xMidYMid meet" version="1.2"><g id="389b631f7d"><path style=" stroke:none;fill-rule:evenodd;fill:#005a48;fill-opacity:1;" d="M 13.148438 72.839844 C 13.339844 72.789062 14.160156 71.746094 14.160156 71.550781 C 14.160156 71.492188 14.34375 71.039062 14.570312 70.542969 C 15.03125 69.527344 15.367188 68.765625 15.589844 68.253906 C 15.675781 68.0625 15.875 67.625 16.035156 67.273438 C 16.308594 66.683594 16.511719 66.210938 16.855469 65.375 C 17.015625 64.976562 17.429688 63.648438 17.617188 62.921875 C 17.710938 62.558594 17.921875 62.246094 18.410156 61.769531 C 18.949219 61.238281 19.164062 60.902344 19.570312 59.964844 C 20.183594 58.554688 20.464844 58.105469 20.84375 57.949219 C 21.628906 57.621094 23.316406 55.6875 24.164062 54.140625 C 24.289062 53.917969 24.480469 53.65625 24.589844 53.566406 C 24.785156 53.40625 25.664062 53.160156 26.488281 53.039062 C 26.730469 53.003906 27.136719 52.789062 27.46875 52.523438 C 27.777344 52.269531 28.320312 51.882812 28.667969 51.65625 C 29.015625 51.433594 29.351562 51.1875 29.414062 51.113281 C 29.480469 51.039062 29.851562 50.730469 30.238281 50.425781 C 30.628906 50.121094 31.132812 49.59375 31.359375 49.257812 C 31.660156 48.800781 31.847656 48.628906 32.078125 48.601562 C 32.34375 48.570312 32.464844 48.414062 32.882812 47.585938 C 33.460938 46.441406 33.632812 46.285156 33.960938 46.609375 C 34.175781 46.828125 34.179688 46.902344 34.058594 47.902344 C 33.945312 48.8125 33.953125 49.027344 34.105469 49.398438 C 34.464844 50.265625 34.707031 51.714844 34.574219 52.207031 C 34.464844 52.625 34.480469 52.691406 34.785156 53.074219 C 34.964844 53.304688 35.113281 53.59375 35.113281 53.71875 C 35.113281 53.847656 35.21875 54.421875 35.347656 55 C 35.878906 57.402344 36.105469 57.8125 37.03125 58.035156 C 38.152344 58.308594 38.445312 58.320312 39.242188 58.125 C 40.65625 57.78125 40.976562 57.425781 41.214844 55.949219 C 41.277344 55.5625 41.4375 54.597656 41.574219 53.804688 C 41.707031 53.011719 41.859375 51.8125 41.910156 51.136719 C 41.972656 50.308594 42.066406 49.8125 42.199219 49.613281 C 42.34375 49.390625 42.375 49.1875 42.320312 48.8125 C 42.257812 48.414062 42.28125 48.292969 42.421875 48.238281 C 42.679688 48.140625 42.640625 47.589844 42.351562 47.28125 C 42.148438 47.0625 42.128906 46.988281 42.25 46.84375 C 42.617188 46.398438 43.039062 46.738281 43.667969 47.992188 C 43.765625 48.183594 44.035156 48.519531 44.269531 48.742188 C 44.503906 48.960938 44.832031 49.296875 44.996094 49.488281 C 45.632812 50.210938 46.484375 50.960938 47.21875 51.453125 C 48.0625 52.015625 48.699219 52.617188 48.699219 52.847656 C 48.699219 52.945312 48.855469 53 49.148438 53 C 49.394531 53 49.65625 53.074219 49.730469 53.164062 C 49.804688 53.253906 50.03125 53.363281 50.234375 53.402344 C 51.242188 53.601562 51.3125 53.6875 51.984375 55.648438 C 52.707031 57.75 52.867188 58.113281 53.277344 58.542969 C 53.667969 58.953125 53.675781 58.988281 53.621094 59.695312 C 53.566406 60.339844 53.183594 62.371094 53.007812 62.929688 C 52.972656 63.042969 52.570312 63.316406 52.117188 63.535156 C 50.917969 64.113281 50.714844 64.316406 50.714844 64.921875 C 50.714844 65.34375 50.78125 65.492188 51.140625 65.859375 C 51.375 66.101562 51.617188 66.441406 51.683594 66.617188 C 51.835938 67.015625 52.027344 67.089844 52.65625 66.996094 C 53.277344 66.902344 53.652344 66.574219 53.652344 66.121094 C 53.652344 65.824219 53.691406 65.777344 53.972656 65.777344 C 54.3125 65.777344 55.1875 65.277344 55.507812 64.902344 C 55.609375 64.785156 55.785156 64.4375 55.898438 64.132812 C 56.277344 63.117188 55.945312 57.167969 55.476562 56.605469 C 55.304688 56.398438 54.457031 54.636719 54.457031 54.488281 C 54.457031 54.25 53.886719 53.261719 53.4375 52.714844 C 53.179688 52.40625 52.9375 52.011719 52.902344 51.839844 C 52.816406 51.457031 52.136719 50.773438 51.519531 50.457031 C 51.269531 50.328125 50.492188 49.988281 49.792969 49.699219 C 49.082031 49.410156 48.425781 49.0625 48.296875 48.90625 C 48.140625 48.71875 47.921875 48.621094 47.605469 48.597656 L 47.144531 48.566406 L 47.113281 47.761719 C 47.070312 46.824219 46.957031 46.652344 46.082031 46.234375 C 45.449219 45.9375 45.351562 45.761719 45.664062 45.503906 C 45.816406 45.375 45.835938 45.207031 45.773438 44.519531 C 45.730469 44.046875 45.746094 43.664062 45.804688 43.625 C 45.957031 43.53125 46.90625 43.972656 47.78125 44.539062 C 48.410156 44.953125 49.070312 45.273438 50.484375 45.855469 C 50.613281 45.90625 50.933594 46.039062 51.203125 46.152344 C 51.558594 46.300781 51.847656 46.335938 52.28125 46.285156 C 53.042969 46.195312 53.382812 46.339844 54.425781 47.214844 C 55.40625 48.035156 55.847656 48.316406 56.472656 48.507812 C 56.726562 48.585938 56.980469 48.695312 57.042969 48.753906 C 57.101562 48.808594 57.21875 48.855469 57.304688 48.855469 C 57.542969 48.855469 58.121094 49.289062 58.972656 50.113281 C 59.421875 50.542969 59.949219 50.933594 60.230469 51.035156 C 60.65625 51.191406 60.804688 51.355469 61.4375 52.367188 C 61.835938 53 62.242188 53.671875 62.339844 53.863281 C 62.4375 54.050781 62.632812 54.34375 62.777344 54.507812 C 62.917969 54.675781 63.214844 55.074219 63.4375 55.398438 C 63.6875 55.769531 64.035156 56.09375 64.375 56.277344 C 64.953125 56.59375 65.625 57.277344 65.625 57.550781 C 65.625 57.753906 66.277344 58.179688 66.589844 58.179688 C 66.773438 58.179688 66.796875 58.117188 66.738281 57.773438 C 66.695312 57.488281 66.460938 57.136719 65.964844 56.59375 C 65.128906 55.683594 64.703125 54.90625 64.703125 54.289062 C 64.703125 53.707031 62.941406 50.28125 62.214844 49.449219 C 61.542969 48.683594 59.886719 47.394531 58.945312 46.90625 C 58.535156 46.695312 58.042969 46.375 57.851562 46.195312 C 57.664062 46.019531 57.324219 45.796875 57.097656 45.703125 C 56.875 45.609375 56.246094 45.273438 55.707031 44.960938 C 54.820312 44.449219 53.511719 43.902344 53.175781 43.902344 C 53.105469 43.902344 52.871094 43.746094 52.65625 43.558594 C 52.4375 43.367188 52.171875 43.207031 52.0625 43.203125 C 51.40625 43.171875 51.226562 43.128906 51.019531 42.941406 C 50.871094 42.804688 50.703125 42.757812 50.550781 42.804688 C 50.421875 42.847656 49.953125 42.84375 49.507812 42.800781 L 48.699219 42.722656 L 48.699219 42.117188 C 48.699219 41.585938 48.664062 41.488281 48.386719 41.304688 C 48.214844 41.191406 47.914062 41.066406 47.722656 41.027344 C 47.40625 40.960938 47.378906 40.917969 47.410156 40.527344 C 47.429688 40.292969 47.554688 39.90625 47.6875 39.667969 C 47.949219 39.207031 50.140625 36.996094 50.339844 36.996094 C 50.625 36.996094 51.257812 36.46875 51.832031 35.753906 C 52.429688 35.007812 53.1875 33.859375 53.195312 33.683594 C 53.195312 33.605469 53.804688 32.652344 54.308594 31.929688 C 54.417969 31.769531 54.742188 31.421875 55.027344 31.152344 C 55.527344 30.679688 55.535156 30.664062 55.246094 30.664062 C 55.078125 30.664062 54.820312 30.5625 54.671875 30.441406 L 54.398438 30.222656 L 54.621094 29.835938 C 55.171875 28.886719 55.375 28.707031 55.902344 28.707031 C 56.171875 28.707031 56.476562 28.675781 56.578125 28.636719 C 56.867188 28.523438 56.792969 28.246094 56.472656 28.246094 C 56.144531 28.246094 56.070312 27.90625 56.347656 27.675781 C 56.4375 27.601562 56.628906 27.257812 56.773438 26.914062 C 57.011719 26.335938 57.078125 26.273438 57.648438 26.058594 C 57.988281 25.929688 58.359375 25.828125 58.472656 25.828125 C 58.804688 25.828125 60.003906 25.382812 60.234375 25.175781 C 60.472656 24.960938 61.40625 24.949219 62.78125 25.148438 C 64.71875 25.429688 65.5 25.414062 66.476562 25.085938 L 67.382812 24.78125 L 67.632812 25.015625 C 68.121094 25.476562 68.597656 25.289062 69.007812 24.480469 C 69.441406 23.625 69.058594 23.265625 67.988281 23.523438 C 67.484375 23.644531 67.324219 23.648438 67.183594 23.53125 C 67.042969 23.410156 66.949219 23.4375 66.65625 23.683594 C 66.226562 24.046875 66.089844 24.058594 65.761719 23.75 C 65.1875 23.21875 62.351562 22.605469 60.453125 22.605469 L 59.121094 22.605469 L 57.507812 23.410156 C 56.621094 23.855469 55.6875 24.335938 55.429688 24.476562 C 55.171875 24.617188 54.835938 24.785156 54.683594 24.847656 C 54.304688 25.003906 53.914062 25.621094 52.832031 27.753906 C 52.328125 28.75 51.851562 29.640625 51.773438 29.738281 C 51.550781 30.023438 51.285156 30.566406 51.121094 31.09375 C 51.035156 31.363281 50.816406 31.75 50.632812 31.957031 C 50.347656 32.277344 50.304688 32.40625 50.335938 32.902344 C 50.363281 33.382812 50.335938 33.484375 50.15625 33.519531 C 49.964844 33.558594 49.953125 33.496094 50 32.832031 C 50.082031 31.738281 50.328125 30.953125 50.71875 30.523438 C 51.40625 29.777344 52.5 27.949219 52.5 27.550781 C 52.5 27.453125 52.578125 27.261719 52.675781 27.125 C 52.769531 26.988281 52.902344 26.449219 52.96875 25.929688 C 53.125 24.695312 53.410156 23.0625 53.496094 22.921875 C 53.570312 22.800781 53.785156 20.132812 53.773438 19.484375 C 53.765625 19.253906 53.839844 18.917969 53.933594 18.738281 C 54.160156 18.300781 53.945312 18.042969 53.683594 18.429688 C 53.585938 18.574219 53.429688 18.691406 53.335938 18.691406 C 53.203125 18.691406 53.214844 18.609375 53.410156 18.28125 C 53.585938 17.980469 53.652344 17.675781 53.652344 17.148438 C 53.652344 16.722656 53.746094 16.144531 53.882812 15.753906 C 54.027344 15.324219 54.113281 14.785156 54.113281 14.253906 C 54.113281 13.773438 54.183594 13.246094 54.285156 13.007812 C 54.378906 12.78125 54.457031 12.460938 54.457031 12.300781 C 54.457031 12.136719 54.707031 11.636719 55.023438 11.171875 C 55.722656 10.144531 56.527344 8.679688 56.527344 8.429688 C 56.53125 8.234375 57.285156 7.542969 58.460938 6.65625 C 59.710938 5.710938 60.164062 5.203125 60.722656 4.109375 C 61.019531 3.53125 61.269531 2.910156 61.285156 2.730469 C 61.304688 2.441406 61.25 2.382812 60.816406 2.230469 C 60.160156 2 59.945312 2.140625 59.863281 2.835938 C 59.824219 3.164062 59.699219 3.476562 59.539062 3.648438 C 59.277344 3.925781 58.179688 4.414062 57.808594 4.414062 C 57.488281 4.414062 56.996094 4.6875 56.925781 4.902344 C 56.886719 5.011719 56.785156 5.105469 56.695312 5.105469 C 56.601562 5.105469 56.28125 5.339844 55.980469 5.625 C 55.679688 5.910156 55.167969 6.328125 54.84375 6.554688 C 54.371094 6.882812 54.160156 7.144531 53.800781 7.847656 C 52.84375 9.707031 52.695312 9.945312 52.371094 10.136719 C 52.070312 10.316406 52.039062 10.394531 52.039062 10.9375 C 52.039062 11.4375 51.972656 11.640625 51.664062 12.074219 L 51.289062 12.605469 L 51.234375 15.855469 C 51.183594 18.660156 51.148438 19.144531 50.980469 19.402344 C 50.769531 19.722656 50.78125 20.070312 51.121094 23.363281 C 51.25 24.585938 51.242188 24.667969 51.007812 25.128906 C 50.839844 25.453125 50.695312 25.601562 50.566406 25.574219 C 50.316406 25.527344 50.195312 24.800781 50.328125 24.195312 C 50.402344 23.875 50.378906 23.546875 50.253906 23.0625 C 50.144531 22.640625 50.085938 21.972656 50.101562 21.3125 C 50.125 20.269531 50.015625 19.5625 49.683594 18.632812 C 49.59375 18.378906 49.328125 17.550781 49.085938 16.789062 C 48.847656 16.03125 48.480469 15.113281 48.273438 14.753906 C 48.066406 14.398438 47.894531 13.996094 47.894531 13.863281 C 47.894531 13.703125 47.769531 13.574219 47.492188 13.457031 C 47.257812 13.363281 47.039062 13.167969 46.976562 13 C 46.917969 12.84375 46.65625 12.574219 46.402344 12.402344 C 46.148438 12.234375 45.9375 12.054688 45.9375 12.003906 C 45.9375 11.875 44.742188 11.042969 44.152344 10.757812 C 43.636719 10.511719 41.6875 9.824219 40.988281 9.644531 C 39.859375 9.351562 37.179688 9.335938 36.515625 9.613281 C 36.242188 9.730469 35.894531 9.824219 35.746094 9.824219 C 35.601562 9.824219 35.246094 9.925781 34.957031 10.046875 C 34.617188 10.195312 34.296875 10.25 34.039062 10.207031 C 33.710938 10.15625 33.578125 10.207031 33.199219 10.535156 C 32.957031 10.75 32.527344 11.078125 32.246094 11.265625 C 31.964844 11.453125 31.5 11.820312 31.210938 12.078125 C 30.917969 12.339844 30.527344 12.625 30.335938 12.714844 C 30.0625 12.84375 29.917969 13.058594 29.644531 13.746094 C 29.449219 14.226562 29.128906 14.875 28.925781 15.1875 C 28.085938 16.5 27.6875 17.71875 27.175781 20.53125 C 26.800781 22.609375 26.433594 24.101562 26.308594 24.0625 C 26.164062 24.015625 26.160156 18.886719 26.300781 17.699219 C 26.375 17.046875 26.355469 16.773438 26.210938 16.375 C 26.019531 15.851562 25.746094 13.269531 25.613281 10.722656 C 25.554688 9.601562 25.484375 9.171875 25.316406 8.878906 C 25.117188 8.527344 24.621094 7.523438 23.640625 5.484375 C 23.207031 4.578125 22.792969 4.222656 22.039062 4.101562 C 21.515625 4.015625 20.5 4.523438 20.210938 5.011719 C 19.925781 5.492188 19.425781 5.453125 18.921875 4.921875 C 18.492188 4.464844 18.238281 4.464844 18.125 4.921875 C 18.070312 5.148438 18.152344 5.351562 18.488281 5.808594 C 19.097656 6.640625 19.796875 7.0625 20.566406 7.0625 C 21.136719 7.0625 21.1875 7.085938 21.554688 7.550781 C 21.765625 7.820312 22.03125 8.238281 22.140625 8.476562 C 22.421875 9.105469 22.796875 10.867188 22.796875 11.585938 C 22.796875 11.925781 22.871094 12.457031 22.964844 12.769531 C 23.429688 14.335938 23.59375 15.65625 23.589844 17.773438 C 23.585938 20.019531 23.796875 21.78125 24.371094 24.214844 C 24.527344 24.878906 24.695312 25.734375 24.742188 26.117188 C 24.847656 26.917969 25.238281 27.902344 25.679688 28.476562 C 26.25 29.214844 26.480469 29.679688 26.476562 30.085938 C 26.476562 30.308594 26.566406 31.125 26.675781 31.898438 C 26.832031 33.019531 26.84375 33.335938 26.730469 33.449219 C 26.550781 33.632812 26.210938 33.441406 26.148438 33.128906 C 26.125 33.011719 26.042969 32.859375 25.960938 32.796875 C 25.816406 32.679688 25.292969 31.761719 24.804688 30.777344 C 24.664062 30.492188 24.371094 30.070312 24.152344 29.839844 C 23.933594 29.609375 23.589844 29.089844 23.390625 28.6875 C 23.1875 28.28125 22.765625 27.667969 22.445312 27.320312 C 22.128906 26.972656 21.691406 26.429688 21.472656 26.113281 C 21.257812 25.796875 20.925781 25.417969 20.734375 25.277344 C 20.382812 25.019531 19.183594 24.589844 18.132812 24.34375 C 17.816406 24.269531 17.132812 24.109375 16.617188 23.984375 C 15.058594 23.605469 14.378906 23.679688 12.777344 24.410156 C 12.558594 24.511719 12.246094 24.679688 12.089844 24.789062 C 11.929688 24.894531 11.5 25.101562 11.128906 25.25 C 10.417969 25.53125 9.210938 26.359375 9.207031 26.566406 C 9.199219 26.792969 8.773438 27.210938 8.546875 27.210938 C 8.425781 27.210938 8.160156 27.003906 7.960938 26.75 C 7.347656 25.992188 6.445312 25.917969 6.445312 26.628906 C 6.445312 27.351562 6.9375 27.898438 7.585938 27.898438 C 7.710938 27.898438 8 28.007812 8.222656 28.140625 C 8.550781 28.332031 8.765625 28.371094 9.292969 28.328125 C 10.230469 28.253906 11.433594 27.929688 12.007812 27.597656 C 12.273438 27.441406 12.570312 27.269531 12.664062 27.214844 C 12.953125 27.050781 14.324219 26.519531 14.460938 26.519531 C 14.53125 26.519531 14.730469 26.628906 14.898438 26.761719 C 15.253906 27.039062 15.335938 27.046875 16.808594 26.890625 C 17.976562 26.765625 18.304688 26.835938 18.304688 27.207031 C 18.304688 27.335938 18.804688 27.878906 19.539062 28.554688 C 21.402344 30.261719 21.660156 30.542969 21.621094 30.808594 C 21.5625 31.21875 21.273438 31.296875 20.652344 31.074219 C 19.738281 30.75 19.425781 30.714844 19.472656 30.945312 C 19.511719 31.132812 19.914062 31.332031 21.089844 31.75 C 21.484375 31.890625 21.640625 32.011719 21.664062 32.195312 C 21.691406 32.382812 21.769531 32.4375 21.960938 32.410156 C 22.285156 32.367188 22.300781 32.570312 21.988281 32.738281 C 21.667969 32.90625 21.773438 33.023438 22.398438 33.195312 C 22.757812 33.296875 23.019531 33.46875 23.21875 33.730469 C 23.382812 33.945312 23.582031 34.117188 23.667969 34.117188 C 23.75 34.117188 24.050781 34.414062 24.332031 34.777344 C 25.378906 36.128906 26.488281 36.996094 27.167969 36.996094 C 27.929688 36.996094 28.246094 37.332031 28.597656 38.515625 C 28.742188 39.007812 28.738281 39.070312 28.550781 39.242188 C 28.359375 39.417969 28.308594 39.40625 27.84375 39.117188 C 27.566406 38.945312 27.316406 38.769531 27.285156 38.726562 C 27.101562 38.476562 25.613281 37.445312 25.351562 37.386719 C 25.179688 37.34375 24.78125 37.066406 24.464844 36.765625 C 24.148438 36.464844 23.371094 35.917969 22.738281 35.554688 C 22.105469 35.1875 21.496094 34.8125 21.390625 34.71875 C 21.28125 34.625 20.945312 34.503906 20.640625 34.449219 C 20.136719 34.355469 18.953125 33.941406 17.792969 33.449219 C 17.46875 33.308594 17.015625 33.257812 16.183594 33.261719 C 15.101562 33.261719 14.914062 33.300781 13.414062 33.816406 C 12.527344 34.125 11.488281 34.492188 11.105469 34.632812 C 10.722656 34.777344 10.074219 34.933594 9.664062 34.980469 C 8.816406 35.074219 8.402344 35.359375 8.402344 35.847656 C 8.402344 36.175781 8.714844 36.535156 9 36.535156 C 9.097656 36.535156 9.273438 36.644531 9.390625 36.773438 C 9.5625 36.964844 9.691406 37 10.011719 36.945312 C 10.238281 36.90625 10.753906 36.828125 11.167969 36.777344 C 12.082031 36.65625 12.441406 36.574219 13.183594 36.3125 C 15.160156 35.609375 15.550781 35.542969 16.085938 35.828125 C 16.332031 35.957031 16.847656 36.082031 17.273438 36.117188 C 17.6875 36.148438 18.257812 36.277344 18.546875 36.398438 C 19.0625 36.621094 19.839844 37.265625 19.929688 37.546875 C 19.957031 37.628906 20.105469 37.703125 20.265625 37.710938 C 20.421875 37.71875 20.652344 37.8125 20.78125 37.917969 C 20.90625 38.019531 21.191406 38.117188 21.414062 38.128906 C 22.707031 38.199219 23.589844 39.003906 23.203125 39.75 C 23.109375 39.929688 23.066406 40.105469 23.105469 40.148438 C 23.148438 40.1875 23.425781 40.21875 23.730469 40.21875 C 24.324219 40.21875 24.503906 40.339844 24.234375 40.566406 C 24.140625 40.644531 24.0625 40.808594 24.0625 40.933594 C 24.0625 41.136719 24.117188 41.148438 24.679688 41.078125 C 25.242188 41.007812 25.300781 41.023438 25.359375 41.246094 C 25.410156 41.441406 25.511719 41.484375 25.921875 41.484375 C 26.253906 41.484375 26.652344 41.605469 27.113281 41.84375 C 27.804688 42.199219 28.144531 42.296875 29.640625 42.558594 C 30.328125 42.679688 30.46875 42.746094 30.652344 43.042969 C 30.820312 43.308594 30.851562 43.5 30.789062 43.902344 C 30.746094 44.1875 30.71875 44.691406 30.726562 45.019531 C 30.742188 45.597656 30.730469 45.625 30.335938 45.8125 C 29.582031 46.167969 29.28125 46.925781 29.605469 47.640625 C 29.679688 47.800781 29.710938 47.964844 29.671875 48.003906 C 29.632812 48.042969 29 48.277344 28.265625 48.523438 C 27.53125 48.769531 26.582031 49.148438 26.15625 49.363281 C 25.03125 49.929688 22.722656 51.699219 21.992188 52.550781 C 21.644531 52.957031 20.90625 53.761719 20.351562 54.339844 C 19.796875 54.921875 19.339844 55.480469 19.339844 55.582031 C 19.339844 55.683594 19.121094 56.003906 18.855469 56.292969 C 18.589844 56.585938 18.210938 57.070312 18.019531 57.375 C 17.523438 58.164062 16.734375 59.277344 16.519531 59.488281 C 16.421875 59.589844 16.203125 59.96875 16.042969 60.335938 C 15.878906 60.699219 15.570312 61.371094 15.355469 61.828125 C 15.140625 62.28125 14.964844 62.699219 14.964844 62.757812 C 14.964844 62.910156 13.296875 67.941406 13.0625 68.484375 C 12.957031 68.738281 12.71875 69.132812 12.535156 69.367188 C 12.160156 69.835938 11.859375 70.601562 11.859375 71.066406 C 11.859375 71.238281 11.9375 71.644531 12.035156 71.972656 C 12.167969 72.421875 12.296875 72.613281 12.546875 72.742188 C 12.730469 72.839844 12.898438 72.910156 12.917969 72.902344 C 12.9375 72.894531 13.039062 72.867188 13.148438 72.839844 M 12.496094 71.707031 C 12.304688 71.101562 12.304688 71.042969 12.5 70.503906 C 12.613281 70.191406 12.820312 69.808594 12.960938 69.65625 C 13.394531 69.191406 13.636719 68.589844 14.5625 65.722656 C 15.820312 61.816406 16.464844 60.386719 17.726562 58.699219 C 18.152344 58.128906 18.574219 57.535156 18.664062 57.378906 C 18.75 57.226562 18.960938 56.980469 19.132812 56.832031 C 19.300781 56.683594 19.554688 56.316406 19.695312 56.019531 C 19.835938 55.71875 20.242188 55.1875 20.597656 54.839844 C 20.949219 54.492188 21.800781 53.601562 22.480469 52.863281 C 23.160156 52.121094 23.835938 51.480469 23.976562 51.433594 C 24.117188 51.390625 24.488281 51.132812 24.792969 50.863281 C 25.480469 50.265625 26.96875 49.515625 28.492188 49.003906 C 29.121094 48.792969 29.757812 48.539062 29.902344 48.445312 C 30.191406 48.253906 30.246094 47.816406 30.046875 47.292969 C 29.867188 46.824219 30.007812 46.574219 30.621094 46.265625 C 31.222656 45.960938 31.375 45.660156 31.253906 45.019531 C 31.214844 44.816406 31.234375 44.441406 31.289062 44.1875 C 31.417969 43.613281 31.21875 42.71875 30.882812 42.382812 C 30.722656 42.222656 30.457031 42.140625 30.015625 42.109375 C 29.664062 42.082031 29.238281 42.011719 29.070312 41.945312 C 28.90625 41.882812 28.648438 41.832031 28.503906 41.832031 C 28.359375 41.832031 27.890625 41.648438 27.464844 41.429688 C 27.027344 41.199219 26.523438 41.023438 26.304688 41.023438 C 26.042969 41.023438 25.820312 40.929688 25.625 40.738281 C 25.46875 40.578125 25.246094 40.449219 25.132812 40.449219 C 25.019531 40.449219 24.839844 40.296875 24.734375 40.113281 C 24.605469 39.886719 24.433594 39.761719 24.21875 39.738281 C 23.941406 39.707031 23.882812 39.636719 23.824219 39.289062 C 23.738281 38.742188 23.308594 38.15625 22.863281 37.976562 C 22.667969 37.894531 22.222656 37.765625 21.875 37.683594 C 21.527344 37.605469 21.140625 37.46875 21.015625 37.382812 C 20.890625 37.296875 20.671875 37.226562 20.53125 37.226562 C 20.382812 37.226562 20.25 37.136719 20.207031 37.003906 C 20.03125 36.441406 18.65625 35.734375 17.730469 35.730469 C 17.304688 35.726562 16.894531 35.632812 16.480469 35.441406 C 16.140625 35.28125 15.699219 35.152344 15.496094 35.152344 C 15.289062 35.152344 14.375 35.390625 13.460938 35.683594 C 12.546875 35.972656 11.464844 36.238281 11.050781 36.273438 C 10.640625 36.308594 10.214844 36.378906 10.109375 36.433594 C 9.980469 36.5 9.859375 36.476562 9.746094 36.363281 C 9.648438 36.269531 9.4375 36.140625 9.277344 36.078125 C 9.113281 36.015625 8.980469 35.886719 8.980469 35.789062 C 8.980469 35.691406 8.992188 35.613281 9.007812 35.613281 C 9.46875 35.609375 11.238281 35.15625 12.375 34.746094 C 15.382812 33.667969 15.53125 33.628906 16.40625 33.691406 C 17.011719 33.730469 17.53125 33.875 18.503906 34.273438 C 19.214844 34.566406 20.007812 34.839844 20.265625 34.878906 C 20.527344 34.921875 20.925781 35.082031 21.152344 35.238281 C 21.382812 35.390625 22.039062 35.785156 22.613281 36.109375 C 23.1875 36.429688 23.90625 36.941406 24.210938 37.238281 C 24.511719 37.535156 24.902344 37.8125 25.074219 37.855469 C 25.246094 37.898438 25.769531 38.226562 26.234375 38.585938 C 27.886719 39.855469 28.144531 39.980469 28.707031 39.765625 C 29.246094 39.558594 29.324219 39.183594 29.027344 38.167969 C 28.746094 37.210938 28.367188 36.695312 27.875 36.605469 C 27.707031 36.574219 27.375 36.519531 27.128906 36.476562 C 26.773438 36.417969 26.480469 36.207031 25.652344 35.40625 C 25.082031 34.859375 24.542969 34.265625 24.449219 34.089844 C 24.359375 33.914062 24.222656 33.773438 24.144531 33.773438 C 24.066406 33.769531 23.8125 33.566406 23.574219 33.3125 C 23.335938 33.0625 23.011719 32.824219 22.855469 32.78125 C 22.445312 32.679688 22.0625 31.828125 22.046875 30.984375 C 22.03125 30.136719 21.875 29.867188 21.023438 29.203125 C 19.839844 28.28125 18.976562 27.40625 18.761719 26.902344 C 18.496094 26.296875 18.273438 26.242188 16.636719 26.398438 C 15.4375 26.511719 15.371094 26.507812 15.125 26.277344 C 14.917969 26.078125 14.765625 26.042969 14.3125 26.085938 C 13.703125 26.144531 12.582031 26.589844 11.753906 27.097656 C 11.046875 27.535156 9.199219 27.984375 8.835938 27.8125 C 8.585938 27.6875 8.585938 27.683594 8.816406 27.675781 C 8.96875 27.671875 9.25 27.421875 9.582031 26.996094 C 9.996094 26.464844 10.257812 26.253906 10.835938 25.988281 C 11.242188 25.808594 11.953125 25.457031 12.425781 25.210938 C 13.878906 24.453125 14.710938 24.183594 15.371094 24.261719 C 16.265625 24.363281 19.492188 25.207031 20.011719 25.472656 C 20.265625 25.601562 20.632812 25.902344 20.824219 26.140625 C 21.015625 26.382812 21.492188 26.964844 21.882812 27.441406 C 22.273438 27.914062 22.746094 28.613281 22.933594 28.992188 C 23.125 29.375 23.453125 29.867188 23.660156 30.085938 C 23.871094 30.308594 24.335938 31.035156 24.695312 31.699219 C 25.054688 32.363281 25.421875 32.988281 25.511719 33.089844 C 25.601562 33.191406 25.675781 33.332031 25.675781 33.40625 C 25.675781 33.679688 26.132812 34.003906 26.527344 34.003906 C 27.078125 34.003906 27.445312 33.535156 27.34375 32.976562 C 27.300781 32.761719 27.171875 31.808594 27.054688 30.859375 C 26.855469 29.242188 26.820312 29.113281 26.484375 28.71875 C 25.890625 28.027344 25.320312 26.742188 25.207031 25.832031 C 25.148438 25.382812 25.054688 24.925781 24.996094 24.816406 C 24.871094 24.582031 24.625 23.253906 24.296875 21.085938 C 24.128906 19.960938 24.0625 18.941406 24.0625 17.503906 C 24.0625 15.453125 23.949219 14.519531 23.476562 12.710938 C 23.355469 12.238281 23.253906 11.589844 23.253906 11.269531 C 23.253906 10.652344 22.90625 9.023438 22.617188 8.285156 C 22.40625 7.753906 21.703125 6.804688 21.433594 6.695312 C 21.328125 6.652344 21.019531 6.613281 20.746094 6.609375 C 20.1875 6.597656 19.738281 6.402344 19.398438 6.019531 L 19.167969 5.761719 L 19.472656 5.832031 C 19.90625 5.9375 20.40625 5.730469 20.621094 5.351562 C 20.722656 5.171875 21.046875 4.910156 21.335938 4.769531 C 21.839844 4.523438 21.882812 4.519531 22.261719 4.703125 C 22.84375 4.976562 22.933594 5.117188 23.707031 6.882812 C 24.09375 7.765625 24.507812 8.59375 24.625 8.722656 C 24.941406 9.074219 25.070312 9.625 25.152344 10.976562 C 25.355469 14.398438 25.542969 16.167969 25.753906 16.652344 C 25.925781 17.042969 25.929688 17.1875 25.789062 18.03125 C 25.582031 19.265625 25.570312 23.058594 25.769531 23.726562 C 25.925781 24.253906 26.273438 24.449219 26.675781 24.234375 C 26.933594 24.097656 27.261719 22.871094 27.691406 20.445312 C 28.105469 18.105469 28.824219 16.058594 29.535156 15.210938 C 29.679688 15.039062 29.910156 14.558594 30.046875 14.140625 C 30.273438 13.460938 30.359375 13.347656 30.894531 13.003906 C 31.222656 12.792969 31.589844 12.503906 31.71875 12.359375 C 31.84375 12.214844 32.21875 11.925781 32.550781 11.710938 C 32.882812 11.5 33.316406 11.171875 33.511719 10.984375 C 33.785156 10.722656 33.945312 10.65625 34.179688 10.703125 C 34.347656 10.734375 34.796875 10.660156 35.175781 10.539062 C 36.980469 9.949219 37.171875 9.917969 38.914062 9.972656 C 40.664062 10.027344 40.679688 10.03125 42.960938 10.851562 C 44.359375 11.351562 46.179688 12.648438 46.589844 13.429688 C 46.683594 13.609375 46.910156 13.808594 47.097656 13.875 C 47.335938 13.957031 47.433594 14.066406 47.433594 14.253906 C 47.433594 14.398438 47.507812 14.578125 47.597656 14.652344 C 47.84375 14.859375 48.40625 16.28125 48.976562 18.136719 C 49.640625 20.300781 49.640625 20.300781 49.625 21.566406 C 49.613281 22.238281 49.675781 22.875 49.777344 23.210938 C 49.902344 23.621094 49.914062 23.851562 49.824219 24.144531 C 49.675781 24.632812 49.800781 25.507812 50.066406 25.835938 C 50.503906 26.378906 51.351562 25.976562 51.582031 25.121094 C 51.71875 24.625 51.640625 22.511719 51.464844 21.914062 C 51.3125 21.394531 51.3125 19.890625 51.464844 19.609375 C 51.566406 19.414062 51.742188 15.105469 51.707031 13.566406 C 51.695312 13.003906 51.742188 12.886719 52.316406 12.078125 C 52.453125 11.886719 52.542969 11.542969 52.554688 11.183594 C 52.574219 10.695312 52.625 10.574219 52.871094 10.425781 C 53.0625 10.308594 53.449219 9.707031 53.9375 8.765625 C 54.367188 7.941406 54.832031 7.199219 54.992188 7.089844 C 55.148438 6.980469 55.632812 6.589844 56.066406 6.226562 C 56.496094 5.863281 56.910156 5.5625 56.980469 5.5625 C 57.050781 5.5625 57.21875 5.433594 57.359375 5.273438 C 57.496094 5.117188 57.820312 4.929688 58.078125 4.863281 C 59.042969 4.617188 59.535156 4.367188 59.925781 3.9375 C 60.148438 3.691406 60.328125 3.375 60.332031 3.234375 C 60.332031 2.890625 60.5 2.636719 60.660156 2.734375 C 60.742188 2.785156 60.601562 3.160156 60.257812 3.8125 C 59.667969 4.9375 59.09375 5.539062 57.3125 6.910156 C 56.695312 7.382812 56.160156 7.882812 56.117188 8.019531 C 55.960938 8.535156 55.222656 9.90625 54.609375 10.816406 C 54.234375 11.375 53.960938 11.917969 53.9375 12.144531 C 53.914062 12.355469 53.8125 12.851562 53.710938 13.242188 C 53.609375 13.636719 53.539062 14.179688 53.550781 14.453125 C 53.566406 14.726562 53.460938 15.402344 53.320312 15.957031 C 53.167969 16.539062 53.089844 17.105469 53.128906 17.289062 C 53.167969 17.472656 53.121094 17.789062 53.015625 18.042969 C 52.84375 18.457031 52.871094 18.917969 53.070312 18.917969 C 53.382812 18.917969 53.25 21.5625 52.832031 23.632812 C 52.703125 24.289062 52.550781 25.199219 52.496094 25.644531 C 52.316406 27.140625 51.988281 28.078125 51.351562 28.886719 C 51.03125 29.289062 50.773438 29.671875 50.773438 29.734375 C 50.773438 29.796875 50.589844 29.992188 50.367188 30.167969 C 49.910156 30.53125 49.808594 30.816406 49.574219 32.40625 C 49.371094 33.761719 49.445312 34.003906 50.070312 34.003906 C 50.714844 34.003906 50.929688 33.753906 50.855469 33.089844 C 50.800781 32.632812 50.835938 32.519531 51.125 32.191406 C 51.308594 31.984375 51.539062 31.53125 51.640625 31.191406 C 51.738281 30.847656 51.972656 30.375 52.160156 30.136719 C 52.347656 29.902344 52.503906 29.601562 52.503906 29.46875 C 52.511719 29.179688 52.617188 28.972656 53.785156 26.96875 L 54.667969 25.453125 L 55.6875 24.9375 C 56.246094 24.652344 57.324219 24.105469 58.082031 23.71875 L 59.464844 23.015625 L 60.445312 23.03125 C 61.996094 23.058594 65.007812 23.753906 65.609375 24.230469 C 65.945312 24.492188 66.40625 24.507812 66.75 24.265625 C 66.894531 24.164062 67.105469 24.117188 67.234375 24.15625 C 67.355469 24.195312 67.71875 24.148438 68.039062 24.054688 C 68.660156 23.871094 68.734375 23.933594 68.433594 24.390625 C 68.21875 24.714844 68.019531 24.753906 67.8125 24.503906 C 67.613281 24.261719 67.121094 24.289062 66.40625 24.574219 C 65.621094 24.890625 64.785156 24.902344 62.445312 24.640625 L 60.585938 24.429688 L 59.898438 24.777344 C 59.523438 24.964844 58.785156 25.226562 58.265625 25.359375 C 56.925781 25.691406 56.742188 25.800781 56.414062 26.46875 C 56.257812 26.789062 56.035156 27.175781 55.925781 27.328125 C 55.8125 27.480469 55.722656 27.71875 55.722656 27.859375 C 55.722656 28.046875 55.632812 28.132812 55.375 28.1875 C 54.867188 28.300781 54.078125 29.5 54.074219 30.167969 C 54.074219 30.433594 54.136719 30.726562 54.214844 30.824219 C 54.335938 30.964844 54.273438 31.117188 53.859375 31.707031 C 53.222656 32.617188 52.617188 33.574219 52.265625 34.230469 C 51.984375 34.75 51.214844 35.765625 50.886719 36.050781 C 50.792969 36.132812 50.527344 36.292969 50.300781 36.398438 C 50.074219 36.507812 49.511719 36.972656 49.046875 37.429688 C 48.585938 37.886719 48.167969 38.261719 48.113281 38.261719 C 47.894531 38.261719 47.183594 39.386719 46.976562 40.066406 C 46.707031 40.9375 46.792969 41.324219 47.285156 41.441406 C 47.460938 41.484375 47.75 41.589844 47.921875 41.675781 C 48.210938 41.824219 48.238281 41.886719 48.214844 42.421875 C 48.183594 43.15625 48.339844 43.285156 49.304688 43.324219 C 50.457031 43.367188 50.589844 43.382812 50.769531 43.496094 C 50.863281 43.554688 51.21875 43.640625 51.5625 43.6875 C 51.988281 43.746094 52.277344 43.863281 52.484375 44.058594 C 52.652344 44.21875 53.046875 44.410156 53.363281 44.488281 C 53.679688 44.5625 54.277344 44.804688 54.6875 45.027344 C 55.097656 45.25 55.824219 45.640625 56.300781 45.894531 C 56.773438 46.148438 57.378906 46.53125 57.644531 46.742188 C 57.910156 46.957031 58.4375 47.277344 58.824219 47.460938 C 59.207031 47.640625 59.714844 47.9375 59.953125 48.117188 C 60.664062 48.660156 62.15625 50.125 62.328125 50.449219 C 63.871094 53.394531 64.269531 54.25 64.3125 54.703125 C 64.339844 54.980469 64.417969 55.3125 64.484375 55.4375 C 64.550781 55.5625 64.570312 55.699219 64.527344 55.742188 C 64.359375 55.90625 63.210938 54.335938 62.054688 52.367188 C 61.414062 51.273438 60.808594 50.582031 60.5 50.582031 C 60.398438 50.582031 59.945312 50.230469 59.488281 49.800781 C 58.457031 48.828125 58.144531 48.617188 57.277344 48.285156 C 56.144531 47.851562 55.488281 47.480469 54.949219 46.972656 C 53.875 45.964844 53.164062 45.644531 52.304688 45.785156 C 51.78125 45.871094 49.992188 45.1875 48.585938 44.367188 C 45.78125 42.730469 45.214844 42.714844 45.257812 44.269531 C 45.273438 44.746094 45.230469 45.117188 45.148438 45.199219 C 44.964844 45.382812 44.984375 45.992188 45.183594 46.277344 C 45.277344 46.410156 45.613281 46.632812 45.929688 46.769531 C 46.578125 47.046875 46.636719 47.171875 46.597656 48.144531 C 46.566406 48.847656 46.710938 49.019531 47.433594 49.140625 C 47.675781 49.183594 47.960938 49.3125 48.070312 49.433594 C 48.175781 49.550781 48.660156 49.8125 49.144531 50.011719 C 51.925781 51.160156 52.09375 51.269531 52.503906 52.234375 C 52.644531 52.558594 52.929688 53.019531 53.140625 53.253906 C 53.566406 53.722656 53.886719 54.308594 54.109375 55.011719 C 54.191406 55.265625 54.480469 55.914062 54.753906 56.453125 C 55.359375 57.644531 55.457031 58.226562 55.542969 61.289062 L 55.605469 63.535156 L 55.292969 64.167969 C 55.039062 64.675781 54.871094 64.851562 54.457031 65.050781 C 54.171875 65.191406 53.824219 65.308594 53.6875 65.3125 C 53.339844 65.320312 53.074219 65.621094 53.074219 66.003906 C 53.074219 66.265625 53.003906 66.355469 52.714844 66.457031 C 52.320312 66.59375 52.15625 66.542969 52.15625 66.289062 C 52.15625 66.195312 51.945312 65.894531 51.695312 65.621094 C 51.441406 65.34375 51.234375 65.007812 51.234375 64.875 C 51.234375 64.59375 52.046875 64.023438 52.761719 63.804688 C 53 63.730469 53.246094 63.605469 53.308594 63.527344 C 53.375 63.453125 53.585938 62.621094 53.78125 61.679688 C 54.234375 59.488281 54.214844 58.703125 53.679688 58.152344 C 53.320312 57.777344 52.863281 56.710938 52.214844 54.726562 C 52.039062 54.1875 51.808594 53.652344 51.707031 53.535156 C 51.453125 53.242188 50.957031 53 50.621094 53 C 50.46875 53 50.21875 52.902344 50.070312 52.785156 C 49.917969 52.667969 49.664062 52.53125 49.507812 52.480469 C 49.347656 52.433594 48.953125 52.15625 48.628906 51.863281 C 48.300781 51.570312 47.738281 51.148438 47.375 50.925781 C 47.011719 50.703125 46.449219 50.242188 46.125 49.898438 C 45.800781 49.558594 45.292969 49.035156 45 48.742188 C 44.703125 48.449219 44.226562 47.816406 43.933594 47.335938 C 43.285156 46.269531 43.152344 46.152344 42.570312 46.152344 C 41.804688 46.152344 41.46875 46.785156 41.851562 47.515625 C 41.984375 47.769531 41.992188 47.886719 41.894531 48.007812 C 41.816406 48.101562 41.785156 48.378906 41.820312 48.675781 C 41.859375 49.027344 41.824219 49.269531 41.703125 49.4375 C 41.59375 49.597656 41.5 50.140625 41.441406 50.96875 C 41.390625 51.671875 41.242188 52.871094 41.105469 53.632812 C 40.972656 54.390625 40.789062 55.417969 40.703125 55.914062 C 40.613281 56.40625 40.476562 56.890625 40.398438 56.988281 C 39.882812 57.605469 38.371094 57.878906 37.257812 57.554688 C 36.644531 57.378906 36.582031 57.328125 36.371094 56.835938 C 36.25 56.546875 35.992188 55.550781 35.800781 54.625 C 35.574219 53.523438 35.390625 52.894531 35.269531 52.800781 C 35.132812 52.699219 35.101562 52.554688 35.152344 52.242188 C 35.226562 51.785156 34.746094 49.273438 34.535156 49.019531 C 34.445312 48.914062 34.445312 48.679688 34.53125 48.207031 C 34.78125 46.855469 34.628906 46.230469 34 46.050781 C 33.304688 45.851562 33.082031 46.007812 32.558594 47.0625 C 32.144531 47.898438 32.019531 48.050781 31.648438 48.199219 C 31.351562 48.316406 31.148438 48.503906 30.988281 48.8125 C 30.863281 49.058594 30.535156 49.46875 30.261719 49.726562 C 29.652344 50.300781 28.105469 51.503906 27.972656 51.503906 C 27.917969 51.503906 27.636719 51.710938 27.34375 51.960938 C 27.050781 52.214844 26.671875 52.453125 26.503906 52.488281 C 25.683594 52.660156 24.671875 52.933594 24.46875 53.035156 C 24.148438 53.195312 23.890625 53.523438 23.40625 54.378906 C 22.886719 55.300781 21.292969 57.082031 20.734375 57.371094 C 20.09375 57.695312 19.871094 58.011719 19.164062 59.5625 C 18.632812 60.734375 18.394531 61.113281 17.894531 61.605469 C 17.457031 62.035156 17.242188 62.355469 17.152344 62.699219 C 16.84375 63.90625 16.359375 65.199219 15.398438 67.390625 C 14.828125 68.6875 14.160156 70.214844 13.914062 70.78125 C 13.472656 71.800781 13.097656 72.339844 12.832031 72.339844 C 12.757812 72.339844 12.605469 72.054688 12.496094 71.707031 M 7.160156 27.1875 C 6.976562 27.003906 6.980469 26.625 7.167969 26.699219 C 7.246094 26.730469 7.402344 26.886719 7.515625 27.042969 C 7.714844 27.316406 7.714844 27.324219 7.511719 27.324219 C 7.394531 27.324219 7.238281 27.261719 7.160156 27.1875 "/></g></svg>