<svg xmlns="http://www.w3.org/2000/svg" xmlns:xlink="http://www.w3.org/1999/xlink" width="200" zoomAndPan="magnify" viewBox="0 0 150 149.999998" height="200" preserveAspectRatio="xMidYMid meet" version="1.2"><defs><clipPath id="80d86dd028"><path d="M 20 8.8125 L 109 8.8125 L 109 77 L 20 77 Z M 20 8.8125 "/></clipPath><clipPath id="1dae8a85e0"><path d="M 3.925781 73 L 89 73 L 89 140.8125 L 3.925781 140.8125 Z M 3.925781 73 "/></clipPath><clipPath id="01b4e8f026"><path d="M 78 46 L 146.425781 46 L 146.425781 140.8125 L 78 140.8125 Z M 78 46 "/></clipPath><clipPath id="a7c5a7a62c"><path d="M 56.28125 28 L 93.78125 28 L 93.78125 57 L 56.28125 57 Z M 56.28125 28 "/></clipPath><clipPath id="df5e06028c"><path d="M 94 90 L 130.964844 90 L 130.964844 125.820312 L 94 125.820312 Z M 94 90 "/></clipPath></defs><g id="8b5b4dfab8"><g clip-rule="nonzero" clip-path="url(#80d86dd028)"><path style=" stroke:none;fill-rule:nonzero;fill:#003a2f;fill-opacity:1;" d="M 108.925781 42.507812 C 108.925781 61.011719 93.851562 76.082031 75.175781 76.082031 C 69.625 76.082031 64.375 74.738281 59.800781 72.351562 C 59.125 71.902344 58.375 71.457031 57.625 71.082031 C 57.476562 71.082031 57.328125 71.007812 57.25 70.933594 C 51.476562 67.800781 44.800781 66.085938 37.675781 66.085938 C 31.453125 66.085938 25.527344 67.5 20.277344 69.964844 L 45.476562 26.542969 C 45.625 26.246094 45.777344 25.949219 46 25.722656 C 51.851562 15.652344 62.726562 8.9375 75.175781 8.9375 C 87.703125 8.9375 98.578125 15.652344 104.351562 25.722656 C 104.578125 25.949219 104.726562 26.246094 104.875 26.542969 C 107.425781 31.246094 108.925781 36.691406 108.925781 42.507812 Z M 108.925781 42.507812 "/></g><g clip-rule="nonzero" clip-path="url(#1dae8a85e0)"><path style=" stroke:none;fill-rule:nonzero;fill:#a6e4b5;fill-opacity:1;" d="M 88.976562 140.6875 L 37.675781 140.6875 C 19 140.6875 3.925781 125.691406 3.925781 107.117188 C 3.925781 101 5.578125 95.328125 8.425781 90.40625 C 8.425781 90.332031 8.425781 90.332031 8.425781 90.332031 C 14.277344 80.257812 25.152344 73.542969 37.675781 73.542969 C 56.351562 73.542969 71.425781 88.539062 71.425781 107.117188 C 71.425781 120.992188 78.402344 133.226562 88.976562 140.6875 Z M 88.976562 140.6875 "/></g><g clip-rule="nonzero" clip-path="url(#01b4e8f026)"><path style=" stroke:none;fill-rule:nonzero;fill:#005a48;fill-opacity:1;" d="M 146.425781 107.117188 C 146.425781 125.691406 131.351562 140.6875 112.675781 140.6875 C 94 140.6875 78.925781 125.691406 78.925781 107.117188 C 78.925781 94.359375 86.050781 83.242188 96.625 77.574219 C 107.5 70.933594 115.078125 59.445312 116.277344 46.089844 L 141.925781 90.332031 C 141.925781 90.332031 141.925781 90.332031 141.925781 90.40625 C 144.777344 95.328125 146.425781 101 146.425781 107.117188 Z M 146.425781 107.117188 "/></g><path style=" stroke:none;fill-rule:nonzero;fill:#f4f6f1;fill-opacity:1;" d="M 37.675781 133.226562 C 52.175781 133.226562 63.925781 121.535156 63.925781 107.117188 C 63.925781 92.695312 52.175781 81.003906 37.675781 81.003906 C 23.179688 81.003906 11.425781 92.695312 11.425781 107.117188 C 11.425781 121.535156 23.179688 133.226562 37.675781 133.226562 Z M 37.675781 133.226562 "/><path style=" stroke:none;fill-rule:nonzero;fill:#f4f6f1;fill-opacity:1;" d="M 112.675781 133.226562 C 127.175781 133.226562 138.925781 121.535156 138.925781 107.117188 C 138.925781 92.695312 127.175781 81.003906 112.675781 81.003906 C 98.179688 81.003906 86.425781 92.695312 86.425781 107.117188 C 86.425781 121.535156 98.179688 133.226562 112.675781 133.226562 Z M 112.675781 133.226562 "/><path style=" stroke:none;fill-rule:nonzero;fill:#f4f6f1;fill-opacity:1;" d="M 75.175781 68.621094 C 89.675781 68.621094 101.425781 56.929688 101.425781 42.507812 C 101.425781 28.089844 89.675781 16.398438 75.175781 16.398438 C 60.679688 16.398438 48.925781 28.089844 48.925781 42.507812 C 48.925781 56.929688 60.679688 68.621094 75.175781 68.621094 Z M 75.175781 68.621094 "/><g clip-rule="nonzero" clip-path="url(#a7c5a7a62c)"><path style=" stroke:none;fill-rule:nonzero;fill:#005a48;fill-opacity:1;" d="M 72.550781 56.066406 C 72.550781 56.066406 70.226562 56.066406 70.226562 53.742188 C 70.226562 51.417969 72.550781 44.445312 81.84375 44.445312 C 91.140625 44.445312 93.464844 51.417969 93.464844 53.742188 C 93.464844 56.066406 91.140625 56.066406 91.140625 56.066406 Z M 81.84375 42.121094 C 82.304688 42.121094 82.757812 42.078125 83.207031 41.988281 C 83.65625 41.898438 84.089844 41.765625 84.511719 41.589844 C 84.9375 41.414062 85.339844 41.199219 85.71875 40.945312 C 86.097656 40.691406 86.453125 40.402344 86.773438 40.078125 C 87.097656 39.753906 87.386719 39.402344 87.640625 39.023438 C 87.898438 38.640625 88.109375 38.242188 88.285156 37.816406 C 88.460938 37.394531 88.59375 36.957031 88.683594 36.507812 C 88.773438 36.058594 88.816406 35.605469 88.816406 35.148438 C 88.816406 34.691406 88.773438 34.238281 88.683594 33.789062 C 88.59375 33.339844 88.460938 32.902344 88.285156 32.480469 C 88.109375 32.058594 87.898438 31.65625 87.640625 31.277344 C 87.386719 30.894531 87.097656 30.542969 86.773438 30.21875 C 86.453125 29.894531 86.097656 29.605469 85.71875 29.351562 C 85.339844 29.097656 84.9375 28.882812 84.511719 28.707031 C 84.089844 28.53125 83.65625 28.402344 83.207031 28.3125 C 82.757812 28.222656 82.304688 28.175781 81.84375 28.175781 C 81.386719 28.175781 80.933594 28.222656 80.484375 28.3125 C 80.035156 28.402344 79.601562 28.53125 79.175781 28.707031 C 78.753906 28.882812 78.351562 29.097656 77.972656 29.351562 C 77.589844 29.605469 77.238281 29.894531 76.914062 30.21875 C 76.589844 30.542969 76.300781 30.894531 76.046875 31.277344 C 75.792969 31.65625 75.578125 32.058594 75.402344 32.480469 C 75.230469 32.902344 75.097656 33.339844 75.007812 33.789062 C 74.917969 34.238281 74.875 34.691406 74.875 35.148438 C 74.875 35.605469 74.917969 36.058594 75.007812 36.507812 C 75.097656 36.957031 75.230469 37.394531 75.402344 37.816406 C 75.578125 38.242188 75.792969 38.640625 76.046875 39.023438 C 76.300781 39.402344 76.589844 39.753906 76.914062 40.078125 C 77.238281 40.402344 77.589844 40.691406 77.972656 40.945312 C 78.351562 41.199219 78.753906 41.414062 79.175781 41.589844 C 79.601562 41.765625 80.035156 41.898438 80.484375 41.988281 C 80.933594 42.078125 81.386719 42.121094 81.84375 42.121094 M 68.402344 56.066406 C 68.054688 55.328125 67.886719 54.554688 67.902344 53.742188 C 67.902344 50.59375 69.480469 47.351562 72.402344 45.097656 C 70.933594 44.644531 69.433594 44.425781 67.902344 44.445312 C 58.605469 44.445312 56.28125 51.417969 56.28125 53.742188 C 56.28125 56.066406 58.605469 56.066406 58.605469 56.066406 Z M 66.738281 42.121094 C 67.121094 42.121094 67.5 42.085938 67.871094 42.007812 C 68.246094 41.933594 68.609375 41.824219 68.960938 41.679688 C 69.316406 41.53125 69.648438 41.355469 69.96875 41.140625 C 70.285156 40.929688 70.578125 40.6875 70.847656 40.417969 C 71.117188 40.148438 71.359375 39.855469 71.570312 39.539062 C 71.78125 39.222656 71.960938 38.886719 72.105469 38.535156 C 72.253906 38.183594 72.363281 37.820312 72.4375 37.445312 C 72.511719 37.070312 72.550781 36.691406 72.550781 36.3125 C 72.550781 35.929688 72.511719 35.550781 72.4375 35.179688 C 72.363281 34.804688 72.253906 34.441406 72.105469 34.089844 C 71.960938 33.734375 71.78125 33.402344 71.570312 33.082031 C 71.359375 32.765625 71.117188 32.472656 70.847656 32.203125 C 70.578125 31.933594 70.285156 31.691406 69.96875 31.480469 C 69.648438 31.269531 69.316406 31.089844 68.960938 30.945312 C 68.609375 30.796875 68.246094 30.6875 67.871094 30.613281 C 67.5 30.539062 67.121094 30.5 66.738281 30.5 C 66.359375 30.5 65.980469 30.539062 65.605469 30.613281 C 65.230469 30.6875 64.867188 30.796875 64.515625 30.945312 C 64.164062 31.089844 63.828125 31.269531 63.511719 31.480469 C 63.195312 31.691406 62.902344 31.933594 62.632812 32.203125 C 62.363281 32.472656 62.121094 32.765625 61.910156 33.082031 C 61.695312 33.402344 61.519531 33.734375 61.371094 34.089844 C 61.226562 34.441406 61.117188 34.804688 61.042969 35.179688 C 60.964844 35.550781 60.929688 35.929688 60.929688 36.3125 C 60.929688 36.691406 60.964844 37.070312 61.042969 37.445312 C 61.117188 37.820312 61.226562 38.183594 61.371094 38.535156 C 61.519531 38.886719 61.695312 39.222656 61.910156 39.539062 C 62.121094 39.855469 62.363281 40.148438 62.632812 40.417969 C 62.902344 40.6875 63.195312 40.929688 63.511719 41.140625 C 63.828125 41.355469 64.164062 41.53125 64.515625 41.679688 C 64.867188 41.824219 65.230469 41.933594 65.605469 42.007812 C 65.980469 42.085938 66.359375 42.121094 66.738281 42.121094 "/></g><path style=" stroke:none;fill-rule:nonzero;fill:#005a48;fill-opacity:1;" d="M 31.640625 93.132812 C 33.484375 92.867188 35.4375 94.882812 36 97.664062 C 36.5625 100.429688 35.546875 102.898438 33.703125 103.179688 C 31.875 103.460938 29.90625 101.445312 29.328125 98.664062 C 28.75 95.898438 29.796875 93.429688 31.640625 93.132812 M 42.8125 93.132812 C 44.671875 93.429688 45.703125 95.898438 45.15625 98.664062 C 44.5625 101.445312 42.609375 103.460938 40.765625 103.179688 C 38.90625 102.898438 37.890625 100.429688 38.46875 97.664062 C 39.03125 94.882812 40.984375 92.867188 42.8125 93.132812 M 23.28125 100.320312 C 25.0625 99.554688 27.484375 100.945312 28.75 103.367188 C 29.9375 105.835938 29.53125 108.429688 27.765625 109.195312 C 26 109.960938 23.59375 108.585938 22.359375 106.132812 C 21.125 103.679688 21.5625 101.070312 23.28125 100.320312 M 51.40625 100.320312 C 53.125 101.070312 53.5625 103.679688 52.328125 106.132812 C 51.09375 108.585938 48.6875 109.960938 46.921875 109.195312 C 45.15625 108.429688 44.75 105.835938 45.9375 103.367188 C 47.203125 100.945312 49.625 99.554688 51.40625 100.320312 M 48.796875 117.164062 C 48.859375 118.632812 47.734375 120.257812 46.390625 120.867188 C 43.59375 122.148438 40.28125 119.492188 37.171875 119.492188 C 34.0625 119.492188 30.71875 122.257812 27.96875 120.867188 C 26.40625 120.101562 25.328125 118.070312 25.53125 116.382812 C 25.8125 114.054688 28.609375 112.804688 30.265625 111.101562 C 32.46875 108.898438 34.03125 104.757812 37.171875 104.757812 C 40.296875 104.757812 41.953125 108.835938 44.0625 111.101562 C 45.796875 113.007812 48.6875 114.617188 48.796875 117.164062 "/><g clip-rule="nonzero" clip-path="url(#df5e06028c)"><path style=" stroke:none;fill-rule:nonzero;fill:#005a48;fill-opacity:1;" d="M 127.988281 92.304688 C 127.480469 92.980469 126.464844 94.273438 123.945312 95.289062 C 121.386719 96.320312 117.183594 97.105469 110.273438 96.527344 C 105.539062 96.132812 102.230469 97.722656 100.132812 100.175781 C 98.082031 102.574219 97.285156 105.6875 97.285156 108.242188 C 97.285156 108.777344 97.308594 109.351562 97.351562 109.960938 C 99.894531 107.660156 103.433594 106.507812 106.917969 105.898438 C 111.644531 105.222656 116.734375 104.855469 120.019531 101.105469 C 120.355469 100.726562 120.964844 100.867188 120.910156 101.367188 C 120.65625 103.675781 118.320312 105.632812 116.585938 106.777344 C 111.03125 110.445312 103.058594 106.5 98.773438 113.972656 C 97.589844 115.847656 95.554688 120.300781 94.671875 124.035156 C 94.507812 124.730469 94.828125 125.464844 95.503906 125.710938 C 95.625 125.757812 95.75 125.789062 95.878906 125.808594 C 96.167969 125.835938 96.453125 125.8125 96.734375 125.738281 C 97.011719 125.660156 97.269531 125.535156 97.503906 125.363281 C 97.738281 125.191406 97.933594 124.984375 98.089844 124.738281 C 98.246094 124.496094 98.351562 124.230469 98.410156 123.945312 C 98.714844 121.671875 99.339844 119.464844 100.445312 117.453125 C 102.742188 119.691406 106.507812 121.132812 112.519531 121.132812 C 116.867188 121.132812 120.300781 119.855469 122.949219 117.769531 C 125.585938 115.691406 127.378906 112.859375 128.550781 109.839844 C 130.894531 103.835938 130.894531 96.863281 130.074219 92.777344 L 129.558594 90.207031 Z M 127.988281 92.304688 "/></g></g></svg>